<?xml version="1.0" encoding="utf-8"?>
<!-- Generator: Adobe Illustrator 22.0.1, SVG Export Plug-In . SVG Version: 6.00 Build 0)  -->
<svg version="1.1" id="Layer_1" xmlns="http://www.w3.org/2000/svg" xmlns:xlink="http://www.w3.org/1999/xlink" x="0px" y="0px"
	 viewBox="0 0 40 40" style="enable-background:new 0 0 40 40;" xml:space="preserve">
<style type="text/css">
	.st0{fill:#CBCBCB;}
	.st1{fill:#FFFFFF;stroke:#000000;stroke-miterlimit:10;}
	.st2{fill:#FFFFFF;}
	.st3{fill:none;stroke:#62B6D8;stroke-miterlimit:10;}
	.st4{fill:#7F7F7F;}
	.st5{fill:#62B6D8;}
</style>
<circle class="st0" cx="20" cy="20" r="19"/>
<path class="st1" d="M1149.5,504.5"/>
<g>
	<path class="st2" d="M3.4,28.3c0.2,0.1,1,0.7,1.2,0.8c0.3,0.1,0.6,0.2,0.8,0.3c0,0,1.1,0.4,2.3,0.5c3.6,0.5,7.9-0.5,7.9-0.5
		c1.8-0.4,4.5-1.1,7.2-3c0.6-0.4,2.5-1.7,4.3-4c1.2-1.4,1.9-2.8,2.5-3.8c-0.2,1.2-0.6,2.9-1.4,4.7c-0.5,1.1-1.1,2.5-2.3,4
		c-1.4,1.8-2.9,2.8-4.1,3.6c-1.2,0.8-4.3,2.5-8.6,3.1c-2.5,0.3-3.9,0.5-5.4-0.2C5.1,32.6,3.6,29.2,3.4,28.3z"/>
	<path class="st2" d="M9.5,35.2c1.2,0.2,3,0.4,5.1,0.2c3.4-0.4,5.7-1.6,7.3-2.5c1.8-1,4.2-2.3,6.2-4.9c1.5-2,2.2-4,2.7-5.3
		c0.6-1.7,1-3.2,1.2-4.3c0.3,1.7,0.5,4.5-0.3,7.7c-0.3,1.3-1.2,4.8-4.2,7.9c-2.4,2.5-4.9,3.6-5.6,3.9c-0.4,0.2-1.6,0.6-2.8,0.8
		C14.7,39.4,10.7,36.2,9.5,35.2z"/>
	<circle class="st3" cx="20" cy="20" r="19"/>
	<path class="st4" d="M3.3,3.2c1,6.6,2,13.1,3,19.7c8.4,0.4,16.7,0.8,25.1,1.2c-0.6,2.5-1.2,5.1-1.8,7.6c1.2,0.1,2.4,0.3,3.7,0.4
		c0.3-3.4,0.7-6.8,1-10.2c-8-0.8-16-1.6-24-2.4C9.7,16.2,9.1,13,8.5,9.8c2.3,0.2,4.6,0.4,6.9,0.6C11.4,8,7.4,5.6,3.3,3.2z"/>
	<path class="st5" d="M3.3,3.1c7.5,2.1,15,4.2,22.5,6.3c0,7.2,0,14.5,0,21.7c2.5,0.3,5,0.6,7.5,0.9l-11.1,1.9
		c-0.2-6.6-0.5-13.3-0.7-19.9C15.4,10.4,9.3,6.8,3.3,3.1z"/>
	<path class="st2" d="M9.4,35.1c1.7,0.1,3.3,0.2,5,0.3"/>
	<path class="st2" d="M31.1,18.2c-0.2-0.1-0.5-0.4-0.7-0.9c-0.1-0.2-0.1-0.4-0.1-0.5c-0.3,0.1-0.5,0.3-0.8,0.4
		c-0.2-0.1-0.3-0.2-0.5-0.3c0.5-0.6,1-1.2,1.6-1.8c0-0.3,0-0.7,0.1-1.2c0.1-0.6,0.2-0.9,0.3-1.5c0.1-0.4,0.1-0.9,0.2-1.5
		c0,0.7,0.1,1.2,0.2,1.5c0.1,0.6,0.3,0.9,0.4,1.5c0.1,0.5,0.1,0.9,0.1,1.2c0.5,0.6,0.9,1.2,1.4,1.7c-0.1,0.1-0.3,0.2-0.4,0.4
		c-0.3-0.1-0.5-0.3-0.8-0.4c0,0.2,0,0.4-0.1,0.6C31.7,17.8,31.3,18.1,31.1,18.2z"/>
</g>
</svg>
